<svg id="svg" xmlns="http://www.w3.org/2000/svg" xmlns:xlink="http://www.w3.org/1999/xlink" width="400" height="400" viewBox="0, 0, 400,400" version="1.1"><g id="svgg"><path id="path0" d="M371.514 187.819 C 371.351 187.983,369.261 188.324,368.161 188.367 C 367.700 188.385,366.945 188.715,366.483 189.100 C 366.022 189.485,365.095 190.225,364.423 190.745 C 363.751 191.264,362.808 192.389,362.327 193.245 C 361.846 194.100,361.326 194.800,361.172 194.800 C 360.706 194.800,360.314 198.298,360.163 203.800 C 359.958 211.276,359.712 214.696,359.339 215.285 C 358.938 215.917,359.001 215.503,358.651 219.800 C 358.033 227.399,357.812 228.793,357.160 229.215 C 356.977 229.334,356.637 231.104,356.406 233.150 C 356.174 235.196,355.741 237.349,355.443 237.935 C 355.145 238.521,354.614 240.426,354.262 242.169 C 353.911 243.912,353.456 245.442,353.251 245.569 C 353.046 245.696,352.749 246.700,352.590 247.800 C 352.432 248.900,351.891 250.700,351.388 251.800 C 350.886 252.900,350.348 254.430,350.193 255.200 C 350.038 255.970,349.638 256.910,349.304 257.288 C 348.971 257.666,348.633 258.530,348.555 259.207 C 348.476 259.884,347.959 261.211,347.406 262.154 C 346.853 263.098,346.400 264.259,346.400 264.735 C 346.400 265.211,346.066 265.934,345.658 266.342 C 345.250 266.750,344.786 267.605,344.627 268.242 C 344.468 268.879,343.812 270.196,343.169 271.169 C 342.526 272.141,342.000 273.356,342.000 273.869 C 342.000 274.381,341.809 274.800,341.576 274.800 C 341.343 274.800,341.264 274.980,341.400 275.200 C 341.536 275.420,341.478 275.600,341.272 275.600 C 341.066 275.600,340.658 276.177,340.366 276.883 C 340.073 277.588,339.512 278.488,339.117 278.883 C 338.723 279.277,338.400 279.844,338.400 280.142 C 338.400 280.439,337.950 281.169,337.400 281.762 C 336.850 282.356,336.400 283.149,336.400 283.524 C 336.400 283.900,336.040 284.432,335.600 284.707 C 335.160 284.982,334.798 285.520,334.796 285.903 C 334.793 286.538,332.919 289.266,331.410 290.834 C 331.074 291.182,330.800 291.767,330.800 292.134 C 330.800 292.500,330.620 292.800,330.400 292.800 C 330.180 292.800,330.000 293.064,330.000 293.386 C 330.000 293.708,329.640 294.165,329.200 294.400 C 328.760 294.635,328.400 295.082,328.400 295.391 C 328.400 295.701,328.082 296.190,327.693 296.477 C 327.304 296.765,326.644 297.535,326.225 298.190 C 325.230 299.745,324.601 300.508,321.500 303.918 C 320.895 304.584,320.400 305.251,320.400 305.400 C 320.400 305.611,314.414 311.885,312.005 314.200 C 311.776 314.420,310.736 315.454,309.694 316.498 C 308.653 317.542,307.658 318.397,307.484 318.398 C 307.311 318.399,306.304 319.255,305.246 320.300 C 303.441 322.084,299.360 325.456,297.379 326.800 C 296.893 327.130,294.916 328.615,292.986 330.100 C 291.057 331.585,289.250 332.800,288.972 332.800 C 288.694 332.800,288.399 333.002,288.317 333.249 C 288.146 333.763,285.798 335.230,283.300 336.385 C 282.365 336.818,281.600 337.324,281.600 337.511 C 281.600 337.698,280.955 338.104,280.167 338.413 C 279.379 338.722,278.576 339.272,278.382 339.634 C 278.188 339.997,277.296 340.410,276.399 340.554 C 275.503 340.697,274.668 341.079,274.543 341.404 C 274.419 341.728,273.616 342.203,272.759 342.460 C 271.901 342.716,271.200 343.051,271.200 343.203 C 271.200 343.459,269.141 344.432,267.475 344.963 C 267.032 345.104,266.862 345.390,267.039 345.697 C 267.198 345.974,267.186 346.071,267.012 345.914 C 266.837 345.757,266.403 345.784,266.047 345.974 C 265.691 346.164,264.689 346.433,263.820 346.570 C 262.951 346.708,261.937 347.095,261.567 347.430 C 261.197 347.764,260.232 348.221,259.422 348.445 C 258.612 348.669,257.594 349.155,257.161 349.526 C 256.728 349.897,256.245 350.207,256.087 350.215 C 255.315 350.256,253.234 350.924,251.800 351.591 C 250.920 352.000,249.411 352.437,248.446 352.563 C 247.481 352.689,246.491 352.956,246.246 353.157 C 245.807 353.516,243.147 354.314,241.209 354.668 C 240.663 354.767,240.117 355.011,239.995 355.209 C 239.872 355.407,239.110 355.846,238.300 356.184 C 237.491 356.522,236.643 357.147,236.415 357.572 C 236.187 357.998,235.641 358.460,235.200 358.600 C 234.760 358.740,234.400 359.168,234.400 359.552 C 234.400 359.935,233.995 360.683,233.500 361.214 C 231.879 362.951,231.924 370.492,233.568 372.560 C 234.246 373.412,234.800 374.279,234.800 374.486 C 234.800 375.180,237.062 377.132,238.624 377.784 C 239.475 378.140,240.305 378.646,240.468 378.910 C 240.942 379.677,247.184 379.704,248.619 378.944 C 249.269 378.600,250.340 378.235,251.000 378.132 C 253.240 377.784,256.525 376.845,256.763 376.483 C 256.893 376.286,257.630 376.014,258.400 375.881 C 260.970 375.435,261.453 375.278,262.831 374.438 C 263.584 373.979,264.539 373.602,264.953 373.601 C 265.367 373.601,266.356 373.198,267.150 372.707 C 267.945 372.216,269.008 371.759,269.513 371.691 C 270.959 371.498,272.400 370.858,272.400 370.410 C 272.400 370.184,272.535 370.021,272.700 370.047 C 272.865 370.073,273.090 370.060,273.200 370.018 C 273.310 369.975,273.794 369.867,274.276 369.776 C 274.758 369.686,276.220 369.070,277.525 368.406 C 278.831 367.743,280.102 367.200,280.349 367.200 C 280.597 367.200,280.800 367.035,280.800 366.833 C 280.800 366.631,281.629 366.150,282.642 365.763 C 283.655 365.376,284.721 364.822,285.011 364.532 C 285.301 364.242,285.867 363.951,286.269 363.886 C 287.031 363.763,289.982 362.160,292.422 360.542 C 293.203 360.024,293.950 359.600,294.081 359.600 C 294.507 359.600,299.796 356.295,299.933 355.943 C 300.007 355.754,300.322 355.600,300.633 355.600 C 300.945 355.600,301.605 355.195,302.100 354.700 C 302.595 354.205,303.135 353.778,303.300 353.750 C 303.465 353.723,303.753 353.678,303.941 353.650 C 304.128 353.623,304.834 353.105,305.510 352.500 C 307.036 351.133,307.386 350.869,309.500 349.494 C 310.435 348.886,311.200 348.231,311.200 348.038 C 311.200 347.845,311.650 347.574,312.200 347.436 C 312.750 347.298,313.200 347.013,313.200 346.803 C 313.200 346.592,313.695 346.163,314.300 345.848 C 315.294 345.331,319.853 341.442,323.043 338.389 C 323.727 337.735,324.374 337.200,324.482 337.200 C 324.790 337.200,328.383 333.948,329.759 332.426 C 330.441 331.670,332.485 329.553,334.300 327.720 C 336.115 325.888,337.600 324.309,337.600 324.212 C 337.600 324.047,337.928 323.664,340.400 320.946 C 340.950 320.341,341.688 319.381,342.040 318.812 C 342.392 318.244,343.337 317.159,344.140 316.401 C 344.943 315.644,345.600 314.864,345.600 314.670 C 345.600 314.475,346.050 313.961,346.600 313.529 C 347.150 313.096,347.600 312.519,347.600 312.246 C 347.600 311.974,348.005 311.320,348.500 310.793 C 348.995 310.267,349.975 308.928,350.678 307.818 C 351.381 306.708,352.251 305.501,352.612 305.135 C 352.972 304.769,353.567 303.925,353.934 303.260 C 354.300 302.595,355.260 301.095,356.067 299.926 C 356.874 298.757,357.758 297.305,358.032 296.700 C 358.305 296.095,358.666 295.600,358.833 295.600 C 359.001 295.600,359.353 294.949,359.615 294.154 C 359.878 293.358,360.427 292.373,360.836 291.964 C 361.245 291.555,361.694 290.766,361.833 290.210 C 361.973 289.655,362.252 289.200,362.453 289.200 C 362.797 289.200,363.579 287.594,363.760 286.519 C 363.805 286.255,364.124 285.715,364.470 285.319 C 364.816 284.924,365.327 283.890,365.606 283.023 C 365.885 282.155,366.448 281.086,366.857 280.647 C 367.265 280.208,367.615 279.748,367.633 279.625 C 367.652 279.501,367.710 279.019,367.763 278.553 C 367.815 278.087,368.250 277.208,368.729 276.599 C 369.208 275.990,369.600 275.199,369.600 274.840 C 369.600 274.482,369.934 273.561,370.341 272.794 C 370.749 272.027,371.313 270.680,371.596 269.800 C 371.878 268.920,372.541 267.338,373.069 266.285 C 373.597 265.232,373.936 264.220,373.823 264.037 C 373.709 263.853,373.973 263.292,374.408 262.790 C 374.844 262.288,375.200 261.848,375.200 261.812 C 375.200 260.999,376.178 256.874,376.448 256.545 C 376.781 256.142,377.991 251.401,378.094 250.100 C 378.116 249.825,378.255 249.600,378.403 249.600 C 378.796 249.600,379.565 246.880,379.759 244.800 C 379.851 243.810,380.278 242.100,380.707 241.000 C 381.136 239.900,381.605 237.740,381.750 236.200 C 382.082 232.680,382.140 232.378,382.680 231.400 C 382.923 230.960,383.121 230.510,383.121 230.400 C 383.121 230.290,383.231 229.390,383.365 228.400 C 383.500 227.410,383.704 224.980,383.820 223.000 C 384.056 218.971,384.179 217.718,384.567 215.400 C 385.548 209.545,385.816 197.454,384.977 196.883 C 384.748 196.727,384.326 195.795,384.038 194.812 C 383.490 192.939,381.163 190.296,379.635 189.811 C 379.169 189.663,378.875 189.403,378.980 189.232 C 379.297 188.719,371.996 187.337,371.514 187.819 " stroke="none" fill="#dadada" fill-rule="evenodd"></path><path id="path1" d="M170.000 0.600 C 170.000 1.103,169.151 1.200,164.758 1.200 C 159.642 1.200,159.496 1.224,158.729 2.200 C 157.994 3.134,157.705 3.200,154.352 3.200 C 151.036 3.200,150.691 3.276,149.835 4.200 C 149.023 5.076,148.574 5.200,146.212 5.200 C 143.812 5.200,143.429 5.310,142.729 6.200 C 142.034 7.083,141.638 7.200,139.352 7.200 C 137.103 7.200,136.640 7.332,135.835 8.200 C 135.101 8.992,134.519 9.200,133.036 9.200 C 131.583 9.200,130.944 9.419,130.186 10.178 C 129.478 10.886,128.682 11.190,127.304 11.278 C 125.679 11.382,125.381 11.532,125.272 12.300 C 125.157 13.108,124.921 13.200,122.953 13.200 C 121.147 13.200,120.604 13.371,119.862 14.171 C 119.268 14.812,118.425 15.186,117.381 15.271 C 116.207 15.367,115.700 15.627,115.413 16.282 C 115.110 16.973,114.634 17.189,113.213 17.282 C 111.694 17.381,111.380 17.543,111.275 18.279 C 111.169 19.021,110.856 19.177,109.275 19.279 C 107.693 19.381,107.380 19.538,107.275 20.279 C 107.169 21.021,106.856 21.177,105.275 21.279 C 103.679 21.382,103.381 21.534,103.272 22.300 C 103.169 23.029,102.890 23.200,101.801 23.200 C 100.523 23.200,99.200 24.028,99.200 24.829 C 99.200 25.033,98.821 25.200,98.358 25.200 C 97.894 25.200,97.161 25.650,96.729 26.200 C 96.163 26.919,95.557 27.200,94.571 27.200 C 93.375 27.200,93.200 27.328,93.200 28.200 C 93.200 29.048,93.015 29.200,91.981 29.200 C 91.194 29.200,90.433 29.555,89.835 30.200 C 89.325 30.750,88.524 31.200,88.054 31.200 C 87.410 31.200,87.200 31.446,87.200 32.200 C 87.200 33.005,87.001 33.200,86.182 33.200 C 85.622 33.200,84.727 33.637,84.193 34.171 C 83.659 34.705,82.812 35.200,82.311 35.271 C 81.722 35.354,81.355 35.718,81.272 36.300 C 81.180 36.951,80.876 37.200,80.172 37.200 C 79.402 37.200,79.200 37.408,79.200 38.200 C 79.200 39.072,79.025 39.200,77.829 39.200 C 76.546 39.200,75.200 40.020,75.200 40.801 C 75.200 40.990,74.795 41.202,74.300 41.272 C 73.722 41.354,73.354 41.722,73.272 42.300 C 73.180 42.951,72.876 43.200,72.172 43.200 C 71.402 43.200,71.200 43.408,71.200 44.200 C 71.200 45.000,71.000 45.200,70.200 45.200 C 69.400 45.200,69.200 45.400,69.200 46.200 C 69.200 46.972,68.994 47.200,68.296 47.200 C 67.799 47.200,67.169 47.558,66.896 47.995 C 66.623 48.432,65.770 49.053,65.000 49.374 C 64.230 49.696,63.600 50.153,63.600 50.389 C 63.600 50.626,63.133 50.998,62.561 51.215 C 61.990 51.432,61.433 51.951,61.324 52.368 C 61.215 52.785,60.769 53.219,60.333 53.333 C 59.897 53.447,59.446 53.904,59.330 54.348 C 59.213 54.792,58.732 55.210,58.259 55.278 C 57.730 55.353,57.352 55.736,57.275 56.275 C 57.198 56.821,56.821 57.198,56.275 57.275 C 55.736 57.352,55.353 57.730,55.278 58.259 C 55.210 58.732,54.792 59.213,54.348 59.330 C 53.904 59.446,53.445 59.908,53.327 60.357 C 53.210 60.806,52.773 61.282,52.357 61.414 C 51.941 61.546,51.600 61.816,51.600 62.013 C 51.600 62.211,51.060 62.925,50.400 63.600 C 49.740 64.275,49.200 65.078,49.200 65.385 C 49.200 65.691,48.750 66.296,48.200 66.729 C 47.650 67.161,47.200 67.894,47.200 68.358 C 47.200 68.989,46.950 69.200,46.200 69.200 C 45.400 69.200,45.200 69.400,45.200 70.200 C 45.200 71.000,45.000 71.200,44.200 71.200 C 43.408 71.200,43.200 71.402,43.200 72.172 C 43.200 72.874,42.951 73.180,42.304 73.272 C 41.787 73.346,41.344 73.738,41.256 74.199 C 41.172 74.638,40.675 75.395,40.152 75.880 C 39.551 76.437,39.200 77.211,39.200 77.981 C 39.200 79.015,39.048 79.200,38.200 79.200 C 37.408 79.200,37.200 79.402,37.200 80.172 C 37.200 80.876,36.951 81.180,36.300 81.272 C 35.718 81.355,35.354 81.722,35.271 82.311 C 35.200 82.812,34.705 83.659,34.171 84.193 C 33.637 84.727,33.200 85.609,33.200 86.154 C 33.200 86.876,32.957 87.179,32.300 87.272 C 31.718 87.355,31.354 87.722,31.271 88.311 C 31.200 88.812,30.705 89.659,30.171 90.193 C 29.637 90.727,29.200 91.609,29.200 92.154 C 29.200 92.876,28.957 93.179,28.300 93.272 C 27.532 93.381,27.382 93.679,27.278 95.300 C 27.168 97.015,27.061 97.200,26.178 97.200 C 25.406 97.200,25.200 97.407,25.200 98.182 C 25.200 98.722,24.750 99.614,24.200 100.164 C 23.650 100.714,23.200 101.579,23.200 102.087 C 23.200 102.661,22.859 103.160,22.300 103.405 C 21.617 103.705,21.371 104.189,21.281 105.413 C 21.192 106.626,20.944 107.122,20.281 107.413 C 19.610 107.708,19.371 108.200,19.278 109.475 C 19.178 110.849,18.999 111.173,18.278 111.275 C 17.536 111.381,17.381 111.694,17.278 113.300 C 17.211 114.345,16.999 115.200,16.807 115.200 C 15.931 115.200,15.200 116.565,15.200 118.200 C 15.200 119.582,14.993 120.105,14.200 120.729 C 13.396 121.361,13.200 121.871,13.200 123.330 C 13.200 124.907,13.082 125.161,12.300 125.272 C 11.503 125.385,11.386 125.663,11.280 127.686 C 11.183 129.556,10.982 130.113,10.180 130.744 C 9.351 131.396,9.200 131.856,9.200 133.729 C 9.200 135.613,9.051 136.059,8.200 136.729 C 7.303 137.434,7.200 137.804,7.200 140.330 C 7.200 142.944,7.136 143.153,6.300 143.272 C 5.474 143.389,5.390 143.639,5.282 146.299 C 5.183 148.756,5.015 149.349,4.182 150.181 C 3.273 151.091,3.200 151.454,3.200 155.087 C 3.200 158.772,3.145 159.034,2.300 159.405 C 1.435 159.785,1.396 160.024,1.289 165.500 C 1.197 170.203,1.075 171.200,0.589 171.200 C 0.076 171.200,0.000 174.977,0.000 200.600 C 0.000 226.209,0.076 230.000,0.588 230.000 C 1.071 230.000,1.197 230.953,1.288 235.300 C 1.397 240.453,1.425 240.604,2.300 240.728 C 3.168 240.851,3.200 241.005,3.200 245.047 C 3.200 249.004,3.256 249.290,4.200 250.165 C 5.076 250.977,5.200 251.426,5.200 253.788 C 5.200 256.188,5.310 256.571,6.200 257.271 C 7.067 257.954,7.200 258.375,7.200 260.447 C 7.200 262.462,7.357 262.993,8.200 263.836 C 9.000 264.636,9.200 265.236,9.200 266.836 C 9.200 268.424,9.401 269.038,10.178 269.814 C 10.886 270.522,11.190 271.318,11.278 272.696 C 11.382 274.321,11.532 274.619,12.300 274.728 C 13.108 274.843,13.200 275.079,13.200 277.047 C 13.200 278.853,13.371 279.396,14.171 280.138 C 14.812 280.732,15.186 281.575,15.271 282.619 C 15.367 283.793,15.627 284.300,16.282 284.587 C 16.973 284.890,17.189 285.366,17.282 286.787 C 17.381 288.306,17.543 288.620,18.279 288.725 C 19.021 288.831,19.177 289.144,19.279 290.725 C 19.381 292.307,19.538 292.620,20.279 292.725 C 21.021 292.831,21.177 293.144,21.279 294.725 C 21.381 296.306,21.538 296.620,22.278 296.725 C 22.999 296.827,23.178 297.151,23.278 298.525 C 23.372 299.812,23.608 300.291,24.300 300.595 C 24.859 300.840,25.200 301.339,25.200 301.913 C 25.200 302.421,25.650 303.286,26.200 303.836 C 26.750 304.386,27.200 305.278,27.200 305.818 C 27.200 306.599,27.405 306.800,28.200 306.800 C 29.072 306.800,29.200 306.975,29.200 308.171 C 29.200 309.473,30.022 310.800,30.829 310.800 C 31.033 310.800,31.200 311.250,31.200 311.800 C 31.200 312.600,31.400 312.800,32.200 312.800 C 33.072 312.800,33.200 312.975,33.200 314.171 C 33.200 315.473,34.022 316.800,34.829 316.800 C 35.033 316.800,35.200 317.250,35.200 317.800 C 35.200 318.600,35.400 318.800,36.200 318.800 C 37.005 318.800,37.200 318.999,37.200 319.818 C 37.200 320.378,37.636 321.272,38.168 321.804 C 38.700 322.337,39.196 323.094,39.270 323.486 C 39.344 323.879,39.809 324.378,40.302 324.595 C 40.852 324.837,41.200 325.341,41.200 325.895 C 41.200 326.594,41.428 326.800,42.200 326.800 C 43.000 326.800,43.200 327.000,43.200 327.800 C 43.200 328.600,43.400 328.800,44.200 328.800 C 45.005 328.800,45.200 328.999,45.200 329.818 C 45.200 330.378,45.636 331.272,46.169 331.805 C 46.702 332.338,47.251 333.131,47.389 333.567 C 47.528 334.003,47.980 334.467,48.395 334.598 C 48.810 334.730,49.206 335.234,49.275 335.719 C 49.353 336.270,49.728 336.647,50.275 336.725 C 50.821 336.802,51.198 337.179,51.275 337.725 C 51.353 338.270,51.730 338.647,52.275 338.725 C 52.821 338.802,53.198 339.179,53.275 339.725 C 53.354 340.279,53.730 340.647,54.300 340.728 C 54.951 340.820,55.200 341.124,55.200 341.828 C 55.200 342.598,55.408 342.800,56.200 342.800 C 57.000 342.800,57.200 343.000,57.200 343.800 C 57.200 344.592,57.402 344.800,58.172 344.800 C 58.876 344.800,59.180 345.049,59.272 345.700 C 59.353 346.270,59.721 346.646,60.275 346.725 C 60.821 346.802,61.198 347.179,61.275 347.725 C 61.353 348.270,61.730 348.647,62.275 348.725 C 62.821 348.802,63.198 349.179,63.275 349.725 C 63.350 350.245,63.729 350.647,64.212 350.716 C 64.659 350.780,65.199 351.229,65.412 351.714 C 65.625 352.199,66.123 352.656,66.518 352.731 C 67.227 352.864,67.710 353.227,70.331 355.597 C 71.063 356.259,72.008 356.800,72.431 356.800 C 72.985 356.800,73.200 357.080,73.200 357.800 C 73.200 358.592,73.402 358.800,74.172 358.800 C 74.876 358.800,75.180 359.049,75.272 359.700 C 75.354 360.278,75.722 360.646,76.300 360.728 C 76.795 360.798,77.200 361.010,77.200 361.199 C 77.200 361.980,78.546 362.800,79.829 362.800 C 81.025 362.800,81.200 362.928,81.200 363.800 C 81.200 364.572,81.406 364.800,82.105 364.800 C 82.660 364.800,83.163 365.148,83.405 365.700 C 83.648 366.253,84.220 366.648,84.891 366.726 C 85.491 366.795,86.327 367.290,86.749 367.826 C 87.170 368.362,87.882 368.800,88.330 368.800 C 88.870 368.800,89.187 369.103,89.272 369.700 C 89.370 370.388,89.704 370.629,90.690 370.725 C 91.477 370.801,92.280 371.230,92.748 371.825 C 93.170 372.361,93.852 372.800,94.263 372.800 C 94.674 372.800,95.188 373.205,95.405 373.700 C 95.709 374.392,96.188 374.628,97.475 374.722 C 98.849 374.822,99.173 375.001,99.275 375.722 C 99.381 376.464,99.694 376.619,101.300 376.722 C 103.015 376.832,103.200 376.939,103.200 377.822 C 103.200 378.729,103.345 378.800,105.200 378.800 C 107.067 378.800,107.200 378.867,107.200 379.800 C 107.200 380.672,107.375 380.800,108.571 380.800 C 109.557 380.800,110.163 381.081,110.729 381.800 C 111.364 382.608,111.869 382.800,113.358 382.800 C 115.056 382.800,115.200 382.878,115.200 383.800 C 115.200 384.731,115.335 384.800,117.172 384.800 C 118.913 384.800,119.159 384.906,119.272 385.700 C 119.381 386.468,119.679 386.618,121.304 386.722 C 122.682 386.810,123.478 387.114,124.186 387.822 C 124.961 388.597,125.576 388.800,127.154 388.800 C 128.914 388.800,129.159 388.904,129.272 389.700 C 129.389 390.525,129.640 390.610,132.274 390.717 C 134.892 390.824,135.160 390.913,135.274 391.717 C 135.389 392.521,135.657 392.610,138.274 392.717 C 140.892 392.824,141.160 392.913,141.274 393.717 C 141.389 394.522,141.656 394.610,144.299 394.718 C 146.756 394.817,147.349 394.985,148.181 395.818 C 149.070 396.706,149.487 396.800,152.553 396.800 C 155.691 396.800,156.000 396.874,156.729 397.800 C 157.490 398.768,157.669 398.800,162.358 398.800 C 166.395 398.800,167.200 398.900,167.200 399.400 C 167.200 399.928,171.089 400.000,199.800 400.000 C 228.208 400.000,232.400 399.924,232.400 399.412 C 232.400 398.933,233.308 398.804,237.300 398.712 C 241.946 398.606,242.221 398.553,242.595 397.700 C 242.964 396.859,243.235 396.800,246.737 396.800 C 250.258 396.800,250.532 396.740,251.271 395.800 C 251.974 394.907,252.352 394.800,254.800 394.800 C 257.437 394.800,258.800 394.251,258.800 393.190 C 258.800 392.995,260.015 392.783,261.500 392.718 C 263.842 392.616,264.251 392.483,264.588 391.716 C 264.922 390.954,265.336 390.817,267.588 390.716 C 269.855 390.615,270.252 390.481,270.595 389.700 C 270.925 388.948,271.303 388.800,272.895 388.800 C 274.651 388.800,274.800 388.723,274.800 387.818 C 274.800 386.885,274.932 386.831,277.500 386.718 C 279.840 386.616,280.252 386.482,280.587 385.718 C 280.890 385.027,281.366 384.811,282.787 384.718 C 284.319 384.618,284.620 384.461,284.728 383.700 C 284.841 382.906,285.087 382.800,286.828 382.800 C 288.653 382.800,288.800 382.727,288.800 381.822 C 288.800 380.939,288.985 380.832,290.700 380.722 C 292.307 380.619,292.619 380.464,292.725 379.721 C 292.831 378.979,293.144 378.823,294.725 378.721 C 296.306 378.619,296.620 378.462,296.725 377.722 C 296.827 377.001,297.151 376.822,298.525 376.722 C 299.812 376.628,300.291 376.392,300.595 375.700 C 300.840 375.141,301.339 374.800,301.913 374.800 C 302.421 374.800,303.286 374.350,303.836 373.800 C 304.386 373.250,305.278 372.800,305.818 372.800 C 306.593 372.800,306.800 372.594,306.800 371.823 C 306.800 370.960,306.998 370.832,308.500 370.723 C 309.813 370.628,310.290 370.395,310.595 369.700 C 310.837 369.148,311.340 368.800,311.895 368.800 C 312.594 368.800,312.800 368.572,312.800 367.800 C 312.800 366.952,312.985 366.800,314.019 366.800 C 314.806 366.800,315.567 366.445,316.165 365.800 C 316.675 365.250,317.476 364.800,317.946 364.800 C 318.590 364.800,318.800 364.554,318.800 363.800 C 318.800 363.050,319.011 362.800,319.642 362.800 C 320.106 362.800,320.830 362.362,321.251 361.826 C 321.673 361.290,322.509 360.795,323.109 360.726 C 323.780 360.648,324.352 360.253,324.595 359.700 C 324.837 359.148,325.340 358.800,325.895 358.800 C 326.594 358.800,326.800 358.572,326.800 357.800 C 326.800 357.000,327.000 356.800,327.800 356.800 C 328.600 356.800,328.800 356.600,328.800 355.800 C 328.800 355.080,329.015 354.800,329.569 354.800 C 329.992 354.800,330.937 354.259,331.669 353.597 C 334.290 351.227,334.773 350.864,335.482 350.731 C 335.877 350.656,336.373 350.202,336.584 349.722 C 336.796 349.242,337.304 348.762,337.714 348.654 C 338.124 348.547,338.554 348.096,338.670 347.652 C 338.787 347.208,339.268 346.790,339.741 346.722 C 340.270 346.647,340.648 346.264,340.725 345.725 C 340.802 345.179,341.179 344.802,341.725 344.725 C 342.270 344.647,342.647 344.270,342.725 343.725 C 342.802 343.179,343.179 342.802,343.725 342.725 C 344.264 342.648,344.647 342.270,344.722 341.741 C 344.790 341.268,345.208 340.787,345.652 340.670 C 346.096 340.554,346.553 340.103,346.667 339.667 C 346.781 339.231,347.231 338.781,347.667 338.667 C 348.103 338.553,348.555 338.092,348.673 337.643 C 348.790 337.194,349.218 336.721,349.623 336.593 C 350.028 336.464,350.472 336.003,350.611 335.567 C 350.749 335.131,351.298 334.338,351.831 333.805 C 352.364 333.272,352.800 332.378,352.800 331.818 C 352.800 330.999,352.995 330.800,353.800 330.800 C 354.600 330.800,354.800 330.600,354.800 329.800 C 354.800 329.000,355.000 328.800,355.800 328.800 C 356.592 328.800,356.800 328.598,356.800 327.828 C 356.800 327.124,357.049 326.820,357.700 326.728 C 358.278 326.646,358.646 326.278,358.728 325.700 C 358.798 325.205,359.010 324.800,359.199 324.800 C 359.980 324.800,360.800 323.454,360.800 322.171 C 360.800 320.975,360.928 320.800,361.800 320.800 C 362.592 320.800,362.800 320.598,362.800 319.828 C 362.800 319.124,363.049 318.820,363.700 318.728 C 364.282 318.645,364.646 318.278,364.729 317.689 C 364.800 317.188,365.295 316.341,365.829 315.807 C 366.363 315.273,366.800 314.378,366.800 313.818 C 366.800 312.999,366.995 312.800,367.800 312.800 C 368.595 312.800,368.800 312.599,368.800 311.818 C 368.800 311.278,369.250 310.386,369.800 309.836 C 370.350 309.286,370.800 308.391,370.800 307.846 C 370.800 307.124,371.043 306.821,371.700 306.728 C 372.388 306.630,372.629 306.296,372.725 305.310 C 372.801 304.523,373.230 303.720,373.825 303.252 C 374.361 302.830,374.800 302.171,374.800 301.788 C 374.800 301.405,375.250 300.675,375.800 300.165 C 376.435 299.576,376.800 298.804,376.800 298.047 C 376.800 297.116,376.997 296.828,377.700 296.728 C 378.466 296.619,378.618 296.321,378.721 294.725 C 378.823 293.144,378.979 292.831,379.721 292.725 C 380.462 292.620,380.619 292.307,380.721 290.725 C 380.823 289.144,380.979 288.831,381.721 288.725 C 382.464 288.619,382.619 288.307,382.722 286.700 C 382.789 285.655,383.001 284.800,383.193 284.800 C 383.976 284.800,384.800 283.461,384.800 282.190 C 384.800 281.279,385.127 280.509,385.800 279.836 C 386.599 279.038,386.800 278.436,386.800 276.846 C 386.800 275.086,386.904 274.841,387.700 274.728 C 388.497 274.615,388.614 274.337,388.720 272.314 C 388.817 270.444,389.018 269.887,389.820 269.256 C 390.649 268.604,390.800 268.144,390.800 266.271 C 390.800 264.387,390.949 263.941,391.800 263.271 C 392.697 262.566,392.800 262.196,392.800 259.670 C 392.800 257.056,392.864 256.847,393.700 256.728 C 394.526 256.611,394.610 256.361,394.718 253.701 C 394.817 251.244,394.985 250.651,395.818 249.819 C 396.727 248.909,396.800 248.546,396.800 244.913 C 396.800 241.228,396.855 240.966,397.700 240.595 C 398.565 240.215,398.604 239.976,398.711 234.500 C 398.803 229.797,398.925 228.800,399.411 228.800 C 399.924 228.800,400.000 225.095,400.000 200.000 C 400.000 174.905,399.924 171.200,399.411 171.200 C 398.925 171.200,398.803 170.203,398.711 165.500 C 398.604 160.024,398.565 159.785,397.700 159.405 C 396.859 159.036,396.800 158.765,396.800 155.263 C 396.800 151.758,396.736 151.465,395.816 150.741 C 394.935 150.048,394.820 149.624,394.716 146.683 C 394.609 143.643,394.535 143.391,393.717 143.274 C 392.913 143.160,392.824 142.892,392.717 140.274 C 392.610 137.657,392.521 137.389,391.717 137.274 C 390.913 137.160,390.824 136.892,390.717 134.274 C 390.610 131.658,390.521 131.389,389.718 131.274 C 388.923 131.161,388.824 130.885,388.718 128.474 C 388.615 126.143,388.484 125.749,387.700 125.405 C 386.948 125.075,386.800 124.697,386.800 123.105 C 386.800 121.340,386.727 121.200,385.800 121.200 C 384.865 121.200,384.800 121.068,384.800 119.182 C 384.800 117.575,384.601 116.964,383.823 116.187 C 383.158 115.522,382.807 114.666,382.723 113.505 C 382.628 112.187,382.396 111.710,381.700 111.405 C 381.037 111.114,380.800 110.674,380.800 109.734 C 380.800 108.512,379.957 107.200,379.171 107.200 C 378.967 107.200,378.800 106.583,378.800 105.829 C 378.800 104.527,377.978 103.200,377.171 103.200 C 376.967 103.200,376.800 102.821,376.800 102.358 C 376.800 101.894,376.350 101.161,375.800 100.729 C 375.081 100.163,374.800 99.557,374.800 98.571 C 374.800 97.384,374.669 97.200,373.823 97.200 C 372.960 97.200,372.832 97.002,372.723 95.500 C 372.628 94.187,372.395 93.710,371.700 93.405 C 371.148 93.163,370.800 92.660,370.800 92.105 C 370.800 91.412,370.571 91.200,369.822 91.200 C 368.939 91.200,368.832 91.015,368.722 89.300 C 368.618 87.679,368.468 87.381,367.700 87.272 C 367.049 87.180,366.800 86.876,366.800 86.172 C 366.800 85.408,366.591 85.200,365.823 85.200 C 364.960 85.200,364.832 85.002,364.723 83.500 C 364.628 82.187,364.395 81.710,363.700 81.405 C 363.148 81.163,362.800 80.660,362.800 80.105 C 362.800 79.406,362.572 79.200,361.800 79.200 C 361.050 79.200,360.800 78.989,360.800 78.358 C 360.800 77.894,360.362 77.170,359.826 76.749 C 359.290 76.327,358.795 75.491,358.726 74.891 C 358.649 74.227,358.254 73.648,357.716 73.412 C 357.230 73.199,356.780 72.659,356.716 72.212 C 356.646 71.721,356.244 71.349,355.700 71.272 C 355.049 71.180,354.800 70.876,354.800 70.172 C 354.800 69.402,354.592 69.200,353.800 69.200 C 353.000 69.200,352.800 69.000,352.800 68.200 C 352.800 67.400,352.600 67.200,351.800 67.200 C 351.080 67.200,350.800 66.985,350.800 66.431 C 350.800 66.008,350.305 65.117,349.700 64.452 C 349.095 63.786,348.150 62.677,347.600 61.986 C 346.073 60.069,344.102 57.837,343.119 56.911 C 342.834 56.642,342.420 56.243,342.200 56.024 C 341.504 55.332,339.317 53.438,338.014 52.400 C 337.323 51.850,336.214 50.905,335.548 50.300 C 334.883 49.695,333.992 49.200,333.569 49.200 C 333.015 49.200,332.800 48.920,332.800 48.200 C 332.800 47.400,332.600 47.200,331.800 47.200 C 331.000 47.200,330.800 47.000,330.800 46.200 C 330.800 45.400,330.600 45.200,329.800 45.200 C 329.000 45.200,328.800 45.000,328.800 44.200 C 328.800 43.428,328.594 43.200,327.895 43.200 C 327.341 43.200,326.837 42.852,326.595 42.302 C 326.378 41.809,325.879 41.344,325.486 41.270 C 325.094 41.196,324.337 40.700,323.804 40.168 C 323.272 39.636,322.378 39.200,321.818 39.200 C 320.999 39.200,320.800 39.005,320.800 38.200 C 320.800 37.428,320.594 37.200,319.895 37.200 C 319.340 37.200,318.837 36.852,318.595 36.300 C 318.290 35.605,317.813 35.372,316.500 35.277 C 314.998 35.168,314.800 35.040,314.800 34.177 C 314.800 33.409,314.592 33.200,313.828 33.200 C 313.124 33.200,312.820 32.951,312.728 32.300 C 312.630 31.612,312.296 31.371,311.310 31.275 C 310.523 31.199,309.720 30.770,309.252 30.175 C 308.830 29.639,308.118 29.200,307.670 29.200 C 307.130 29.200,306.813 28.897,306.728 28.300 C 306.619 27.532,306.321 27.382,304.700 27.278 C 302.985 27.168,302.800 27.061,302.800 26.178 C 302.800 25.331,302.617 25.200,301.429 25.200 C 300.443 25.200,299.837 24.919,299.271 24.200 C 298.839 23.650,298.171 23.200,297.788 23.200 C 297.405 23.200,296.675 22.750,296.165 22.200 C 295.567 21.555,294.806 21.200,294.019 21.200 C 293.349 21.200,292.800 21.033,292.800 20.829 C 292.800 20.043,291.488 19.200,290.266 19.200 C 289.326 19.200,288.886 18.963,288.595 18.300 C 288.290 17.604,287.813 17.372,286.495 17.277 C 285.334 17.193,284.478 16.842,283.813 16.177 C 283.152 15.516,282.387 15.200,281.447 15.200 C 280.442 15.200,279.841 14.924,279.271 14.200 C 278.647 13.406,278.125 13.200,276.737 13.200 C 275.309 13.200,274.918 13.036,274.595 12.300 C 274.251 11.516,273.857 11.385,271.526 11.282 C 269.115 11.176,268.839 11.077,268.726 10.282 C 268.615 9.507,268.323 9.385,266.314 9.280 C 264.444 9.183,263.887 8.982,263.256 8.180 C 262.568 7.306,262.181 7.200,259.670 7.200 C 257.056 7.200,256.847 7.136,256.728 6.300 C 256.609 5.461,256.376 5.392,253.317 5.284 C 250.376 5.180,249.952 5.065,249.259 4.184 C 248.535 3.264,248.242 3.200,244.737 3.200 C 241.235 3.200,240.964 3.141,240.595 2.300 C 240.215 1.435,239.976 1.396,234.500 1.289 C 229.797 1.197,228.800 1.075,228.800 0.589 C 228.800 0.076,225.023 0.000,199.400 0.000 C 173.533 0.000,170.000 0.072,170.000 0.600 M219.405 57.700 C 219.781 58.556,220.047 58.605,224.880 58.712 C 229.743 58.819,229.994 58.866,230.738 59.812 C 231.433 60.696,231.812 60.800,234.339 60.800 C 236.819 60.800,237.286 60.922,238.164 61.800 C 239.052 62.688,239.498 62.800,242.154 62.800 C 244.951 62.800,245.153 62.858,245.272 63.700 C 245.381 64.468,245.679 64.618,247.304 64.722 C 248.682 64.810,249.478 65.114,250.186 65.822 C 250.961 66.597,251.576 66.800,253.154 66.800 C 254.914 66.800,255.159 66.904,255.272 67.700 C 255.380 68.461,255.681 68.618,257.213 68.718 C 258.634 68.811,259.110 69.027,259.413 69.718 C 259.709 70.393,260.199 70.629,261.500 70.723 C 262.435 70.791,263.200 71.003,263.200 71.194 C 263.200 71.959,264.527 72.800,265.734 72.800 C 266.674 72.800,267.114 73.037,267.405 73.700 C 267.709 74.392,268.188 74.628,269.475 74.722 C 270.849 74.822,271.173 75.001,271.275 75.722 C 271.370 76.386,271.714 76.630,272.690 76.725 C 273.477 76.801,274.280 77.230,274.748 77.825 C 275.170 78.361,275.852 78.800,276.263 78.800 C 276.674 78.800,277.188 79.205,277.405 79.700 C 277.710 80.395,278.187 80.628,279.500 80.723 C 281.002 80.832,281.200 80.960,281.200 81.823 C 281.200 82.591,281.408 82.800,282.172 82.800 C 282.876 82.800,283.180 83.049,283.272 83.700 C 283.355 84.282,283.722 84.646,284.311 84.729 C 284.812 84.800,285.659 85.295,286.193 85.829 C 286.727 86.363,287.622 86.800,288.182 86.800 C 289.001 86.800,289.200 86.995,289.200 87.800 C 289.200 88.592,289.402 88.800,290.172 88.800 C 290.876 88.800,291.180 89.049,291.272 89.700 C 291.353 90.270,291.721 90.646,292.275 90.725 C 292.821 90.802,293.198 91.179,293.275 91.725 C 293.353 92.272,293.730 92.647,294.281 92.725 C 294.766 92.794,295.273 93.199,295.408 93.625 C 295.543 94.051,295.816 94.400,296.013 94.400 C 296.780 94.400,303.600 101.223,303.600 101.989 C 303.600 102.186,303.941 102.454,304.357 102.586 C 304.773 102.718,305.210 103.194,305.327 103.643 C 305.445 104.092,305.904 104.554,306.348 104.670 C 306.792 104.787,307.210 105.268,307.278 105.741 C 307.354 106.279,307.737 106.648,308.300 106.728 C 308.951 106.820,309.200 107.124,309.200 107.828 C 309.200 108.598,309.408 108.800,310.200 108.800 C 311.000 108.800,311.200 109.000,311.200 109.800 C 311.200 110.600,311.400 110.800,312.200 110.800 C 313.005 110.800,313.200 110.999,313.200 111.818 C 313.200 112.378,313.637 113.273,314.171 113.807 C 314.705 114.341,315.200 115.188,315.271 115.689 C 315.354 116.278,315.718 116.645,316.300 116.728 C 316.951 116.820,317.200 117.124,317.200 117.828 C 317.200 118.592,317.409 118.800,318.177 118.800 C 319.040 118.800,319.168 118.998,319.277 120.500 C 319.372 121.813,319.605 122.290,320.300 122.595 C 320.852 122.837,321.200 123.340,321.200 123.895 C 321.200 124.588,321.429 124.800,322.178 124.800 C 323.061 124.800,323.168 124.985,323.278 126.700 C 323.381 128.306,323.536 128.619,324.278 128.725 C 324.999 128.827,325.178 129.151,325.278 130.525 C 325.371 131.800,325.610 132.292,326.281 132.587 C 326.944 132.878,327.192 133.374,327.281 134.587 C 327.371 135.811,327.617 136.295,328.300 136.595 C 328.963 136.886,329.200 137.326,329.200 138.266 C 329.200 139.473,330.041 140.800,330.807 140.800 C 330.999 140.800,331.211 141.655,331.278 142.700 C 331.382 144.321,331.532 144.619,332.300 144.728 C 333.096 144.841,333.200 145.086,333.200 146.846 C 333.200 148.436,333.401 149.038,334.200 149.836 C 334.974 150.611,335.200 151.248,335.200 152.661 C 335.200 154.130,335.394 154.638,336.200 155.271 C 337.083 155.966,337.200 156.362,337.200 158.648 C 337.200 160.897,337.332 161.360,338.200 162.165 C 339.099 162.999,339.200 163.401,339.200 166.165 C 339.200 168.918,339.303 169.333,340.186 170.152 C 341.108 171.006,341.180 171.365,341.286 175.633 C 341.393 179.932,341.453 180.223,342.300 180.595 L 343.200 180.990 343.200 200.095 C 343.200 211.585,343.052 219.200,342.829 219.200 C 341.552 219.200,341.200 220.496,341.200 225.200 C 341.200 229.782,341.166 229.969,340.200 230.729 C 339.282 231.451,339.200 231.777,339.200 234.729 C 339.200 237.680,339.118 238.006,338.200 238.729 C 337.303 239.434,337.200 239.804,337.200 242.330 C 337.200 244.944,337.136 245.153,336.300 245.272 C 335.503 245.385,335.386 245.663,335.280 247.686 C 335.183 249.556,334.982 250.113,334.180 250.744 C 333.407 251.352,333.200 251.884,333.200 253.263 C 333.200 254.691,333.036 255.082,332.300 255.405 C 331.605 255.710,331.372 256.187,331.277 257.500 C 331.209 258.435,330.997 259.200,330.806 259.200 C 330.053 259.200,329.200 260.519,329.200 261.683 C 329.200 262.476,328.847 263.235,328.200 263.835 C 327.555 264.433,327.200 265.194,327.200 265.981 C 327.200 266.651,327.033 267.200,326.829 267.200 C 326.028 267.200,325.200 268.523,325.200 269.801 C 325.200 270.890,325.029 271.169,324.300 271.272 C 323.532 271.381,323.382 271.679,323.278 273.300 C 323.168 275.015,323.061 275.200,322.178 275.200 C 321.401 275.200,321.200 275.406,321.200 276.200 C 321.200 276.750,321.033 277.200,320.829 277.200 C 320.022 277.200,319.200 278.527,319.200 279.829 C 319.200 281.025,319.072 281.200,318.200 281.200 C 317.428 281.200,317.200 281.406,317.200 282.105 C 317.200 282.660,316.852 283.163,316.300 283.405 C 315.747 283.648,315.352 284.220,315.274 284.891 C 315.205 285.491,314.710 286.327,314.174 286.749 C 313.638 287.170,313.200 287.894,313.200 288.358 C 313.200 288.989,312.950 289.200,312.200 289.200 C 311.408 289.200,311.200 289.402,311.200 290.172 C 311.200 290.876,310.951 291.180,310.300 291.272 C 309.737 291.352,309.354 291.721,309.278 292.259 C 309.210 292.732,308.806 293.210,308.380 293.321 C 307.953 293.433,307.482 293.856,307.332 294.262 C 307.182 294.668,306.686 295.389,306.230 295.865 C 305.773 296.341,304.500 297.742,303.400 298.978 C 299.790 303.035,297.654 305.002,296.439 305.388 C 296.000 305.527,295.533 305.980,295.402 306.395 C 295.270 306.810,294.766 307.206,294.281 307.275 C 293.730 307.353,293.353 307.728,293.275 308.275 C 293.198 308.821,292.821 309.198,292.275 309.275 C 291.721 309.354,291.353 309.730,291.272 310.300 C 291.180 310.951,290.876 311.200,290.172 311.200 C 289.402 311.200,289.200 311.408,289.200 312.200 C 289.200 312.950,288.989 313.200,288.358 313.200 C 287.894 313.200,287.170 313.639,286.748 314.175 C 286.280 314.770,285.477 315.199,284.690 315.275 C 283.704 315.371,283.370 315.612,283.272 316.300 C 283.180 316.951,282.876 317.200,282.172 317.200 C 281.408 317.200,281.200 317.409,281.200 318.177 C 281.200 319.040,281.002 319.168,279.500 319.277 C 278.187 319.372,277.710 319.605,277.405 320.300 C 277.163 320.852,276.660 321.200,276.105 321.200 C 275.412 321.200,275.200 321.429,275.200 322.178 C 275.200 323.061,275.015 323.168,273.300 323.278 C 271.694 323.381,271.381 323.536,271.275 324.278 C 271.173 324.999,270.849 325.178,269.475 325.278 C 268.200 325.371,267.708 325.610,267.413 326.281 C 267.122 326.944,266.626 327.192,265.413 327.281 C 264.200 327.371,263.704 327.619,263.413 328.281 C 263.122 328.944,262.626 329.192,261.413 329.281 C 260.200 329.371,259.704 329.619,259.413 330.282 C 259.110 330.973,258.634 331.189,257.213 331.282 C 255.681 331.382,255.380 331.539,255.272 332.300 C 255.159 333.096,254.914 333.200,253.154 333.200 C 251.564 333.200,250.962 333.401,250.164 334.200 C 249.389 334.974,248.752 335.200,247.339 335.200 C 245.870 335.200,245.362 335.394,244.729 336.200 C 244.026 337.093,243.648 337.200,241.200 337.200 C 238.548 337.200,237.200 337.749,237.200 338.829 C 237.200 339.033,235.751 339.200,233.981 339.200 C 231.073 339.200,230.673 339.295,229.848 340.186 C 228.994 341.108,228.635 341.180,224.367 341.286 C 220.068 341.393,219.777 341.453,219.405 342.300 L 219.010 343.200 199.905 343.200 C 188.415 343.200,180.800 343.052,180.800 342.829 C 180.800 341.552,179.504 341.200,174.800 341.200 C 170.218 341.200,170.031 341.166,169.271 340.200 C 168.549 339.282,168.223 339.200,165.271 339.200 C 162.320 339.200,161.994 339.118,161.271 338.200 C 160.566 337.303,160.196 337.200,157.670 337.200 C 155.056 337.200,154.847 337.136,154.728 336.300 C 154.611 335.474,154.361 335.390,151.700 335.282 C 148.919 335.170,148.800 335.125,148.800 334.182 C 148.800 333.277,148.651 333.200,146.895 333.200 C 145.303 333.200,144.925 333.052,144.595 332.300 C 144.290 331.604,143.813 331.372,142.495 331.277 C 141.334 331.193,140.478 330.842,139.813 330.177 C 139.276 329.640,138.386 329.200,137.836 329.200 C 137.286 329.200,136.386 328.750,135.836 328.200 C 135.286 327.650,134.444 327.200,133.964 327.200 C 133.484 327.200,132.675 326.750,132.165 326.200 C 131.600 325.590,130.799 325.200,130.114 325.200 C 129.332 325.200,128.870 324.926,128.595 324.300 C 128.290 323.605,127.813 323.372,126.500 323.277 C 124.998 323.168,124.800 323.040,124.800 322.177 C 124.800 321.446,124.585 321.200,123.946 321.200 C 123.476 321.200,122.675 320.750,122.165 320.200 C 121.567 319.555,120.806 319.200,120.019 319.200 C 118.985 319.200,118.800 319.048,118.800 318.200 C 118.800 317.400,118.600 317.200,117.800 317.200 C 117.250 317.200,116.800 317.033,116.800 316.829 C 116.800 316.022,115.473 315.200,114.171 315.200 C 112.975 315.200,112.800 315.072,112.800 314.200 C 112.800 313.408,112.598 313.200,111.828 313.200 C 111.124 313.200,110.820 312.951,110.728 312.300 C 110.647 311.730,110.279 311.354,109.725 311.275 C 109.181 311.198,108.802 310.821,108.725 310.279 C 108.654 309.786,108.254 309.342,107.801 309.256 C 107.362 309.172,106.605 308.675,106.120 308.152 C 105.635 307.628,104.997 307.200,104.702 307.200 C 104.407 307.200,103.316 306.300,102.278 305.200 C 101.240 304.100,100.032 303.200,99.595 303.200 C 99.014 303.200,98.800 302.931,98.800 302.200 C 98.800 301.400,98.600 301.200,97.800 301.200 C 97.069 301.200,96.800 300.986,96.800 300.405 C 96.800 299.968,95.900 298.760,94.800 297.722 C 93.700 296.684,92.800 295.593,92.800 295.298 C 92.800 295.003,92.372 294.365,91.848 293.880 C 91.325 293.395,90.828 292.638,90.744 292.199 C 90.656 291.738,90.213 291.346,89.696 291.272 C 89.049 291.180,88.800 290.874,88.800 290.172 C 88.800 289.402,88.592 289.200,87.800 289.200 C 87.000 289.200,86.800 289.000,86.800 288.200 C 86.800 287.400,86.600 287.200,85.800 287.200 C 84.952 287.200,84.800 287.015,84.800 285.981 C 84.800 285.211,84.449 284.437,83.848 283.880 C 83.325 283.395,82.828 282.638,82.744 282.199 C 82.656 281.738,82.213 281.346,81.696 281.272 C 81.044 281.179,80.800 280.875,80.800 280.154 C 80.800 279.609,80.350 278.714,79.800 278.164 C 79.250 277.614,78.800 276.722,78.800 276.182 C 78.800 275.407,78.594 275.200,77.823 275.200 C 76.960 275.200,76.832 275.002,76.723 273.500 C 76.628 272.187,76.395 271.710,75.700 271.405 C 75.141 271.160,74.800 270.661,74.800 270.087 C 74.800 269.579,74.350 268.714,73.800 268.164 C 73.250 267.614,72.800 266.793,72.800 266.339 C 72.800 265.886,72.350 265.161,71.800 264.729 C 71.076 264.159,70.800 263.558,70.800 262.553 C 70.800 261.604,70.483 260.846,69.800 260.164 C 69.127 259.491,68.800 258.721,68.800 257.810 C 68.800 256.524,67.974 255.200,67.171 255.200 C 66.967 255.200,66.800 254.300,66.800 253.200 C 66.800 251.343,66.730 251.200,65.818 251.200 C 64.875 251.200,64.830 251.081,64.718 248.300 C 64.610 245.639,64.526 245.389,63.700 245.272 C 62.864 245.153,62.800 244.944,62.800 242.330 C 62.800 239.804,62.697 239.434,61.800 238.729 C 60.882 238.006,60.800 237.680,60.800 234.729 C 60.800 231.777,60.718 231.451,59.800 230.729 C 58.837 229.971,58.800 229.772,58.800 225.352 C 58.800 220.970,58.755 220.720,57.800 219.835 L 56.800 218.908 56.800 199.854 C 56.800 188.395,56.948 180.800,57.171 180.800 C 58.420 180.800,58.800 179.491,58.800 175.190 C 58.800 171.079,58.856 170.781,59.800 169.836 C 60.689 168.947,60.800 168.503,60.800 165.836 C 60.800 163.170,60.911 162.725,61.800 161.836 C 62.688 160.948,62.800 160.502,62.800 157.846 C 62.800 155.049,62.858 154.847,63.700 154.728 C 64.497 154.615,64.614 154.337,64.720 152.314 C 64.817 150.444,65.018 149.887,65.820 149.256 C 66.603 148.640,66.800 148.120,66.800 146.670 C 66.800 145.093,66.918 144.839,67.700 144.728 C 68.456 144.620,68.620 144.315,68.727 142.821 C 68.817 141.558,69.136 140.780,69.827 140.140 C 70.392 139.616,70.800 138.788,70.800 138.165 C 70.800 137.534,71.212 136.710,71.800 136.165 C 72.388 135.620,72.800 134.796,72.800 134.165 C 72.800 133.534,73.212 132.710,73.800 132.165 C 74.435 131.576,74.800 130.804,74.800 130.047 C 74.800 129.116,74.997 128.828,75.700 128.728 C 76.468 128.619,76.618 128.321,76.722 126.700 C 76.832 124.985,76.939 124.800,77.822 124.800 C 78.554 124.800,78.800 124.585,78.800 123.946 C 78.800 123.476,79.250 122.675,79.800 122.165 C 80.445 121.567,80.800 120.806,80.800 120.019 C 80.800 118.985,80.952 118.800,81.800 118.800 C 82.572 118.800,82.800 118.594,82.800 117.895 C 82.800 117.340,83.148 116.837,83.700 116.595 C 84.395 116.290,84.628 115.813,84.723 114.500 C 84.832 112.998,84.960 112.800,85.823 112.800 C 86.598 112.800,86.800 112.594,86.800 111.800 C 86.800 111.000,87.000 110.800,87.800 110.800 C 88.592 110.800,88.800 110.598,88.800 109.828 C 88.800 109.124,89.049 108.820,89.700 108.728 C 90.272 108.647,90.646 108.279,90.725 107.719 C 90.794 107.234,91.190 106.730,91.605 106.598 C 92.020 106.467,92.473 106.000,92.612 105.561 C 93.176 103.786,103.786 93.176,105.561 92.612 C 106.000 92.473,106.467 92.020,106.598 91.605 C 106.730 91.190,107.234 90.794,107.719 90.725 C 108.279 90.646,108.647 90.272,108.728 89.700 C 108.820 89.049,109.124 88.800,109.828 88.800 C 110.598 88.800,110.800 88.592,110.800 87.800 C 110.800 87.000,111.000 86.800,111.800 86.800 C 112.600 86.800,112.800 86.600,112.800 85.800 C 112.800 84.928,112.975 84.800,114.171 84.800 C 115.473 84.800,116.800 83.978,116.800 83.171 C 116.800 82.967,117.250 82.800,117.800 82.800 C 118.600 82.800,118.800 82.600,118.800 81.800 C 118.800 80.952,118.985 80.800,120.019 80.800 C 120.806 80.800,121.567 80.445,122.165 79.800 C 122.675 79.250,123.476 78.800,123.946 78.800 C 124.585 78.800,124.800 78.554,124.800 77.823 C 124.800 76.960,124.998 76.832,126.500 76.723 C 127.813 76.628,128.290 76.395,128.595 75.700 C 128.840 75.141,129.339 74.800,129.913 74.800 C 130.421 74.800,131.286 74.350,131.836 73.800 C 132.386 73.250,133.207 72.800,133.661 72.800 C 134.114 72.800,134.839 72.350,135.271 71.800 C 135.841 71.076,136.442 70.800,137.447 70.800 C 138.387 70.800,139.152 70.484,139.813 69.823 C 140.478 69.158,141.334 68.807,142.495 68.723 C 143.813 68.628,144.290 68.396,144.595 67.700 C 144.925 66.948,145.303 66.800,146.895 66.800 C 148.651 66.800,148.800 66.723,148.800 65.818 C 148.800 64.875,148.919 64.830,151.700 64.718 C 154.344 64.610,154.611 64.522,154.726 63.717 C 154.840 62.913,155.108 62.824,157.726 62.717 C 160.346 62.610,160.611 62.522,160.726 61.714 C 160.845 60.879,161.072 60.822,164.726 60.714 C 168.399 60.606,168.607 60.553,168.728 59.700 C 168.853 58.818,168.962 58.800,174.199 58.800 C 179.528 58.800,180.800 58.486,180.800 57.171 C 180.800 56.948,188.415 56.800,199.905 56.800 L 219.010 56.800 219.405 57.700 M377.695 188.447 C 378.077 188.641,378.579 188.800,378.811 188.800 C 379.517 188.800,383.600 192.652,383.600 193.317 C 383.600 193.494,383.991 194.395,384.470 195.319 C 385.517 197.344,385.904 205.573,385.264 212.200 C 384.433 220.796,383.139 230.967,382.794 231.612 C 382.399 232.349,382.217 233.329,381.795 236.993 C 381.643 238.309,381.195 240.289,380.799 241.393 C 380.404 242.497,379.982 244.333,379.862 245.473 C 379.742 246.613,379.274 248.270,378.822 249.157 C 378.370 250.043,378.000 251.149,378.000 251.614 C 378.000 252.079,377.570 253.751,377.045 255.329 C 376.520 256.908,375.963 258.830,375.807 259.600 C 375.650 260.370,375.180 261.595,374.761 262.323 C 374.343 263.050,374.000 263.939,374.000 264.297 C 374.000 264.655,373.651 265.679,373.225 266.574 C 372.497 268.102,371.761 269.911,369.980 274.551 C 369.569 275.624,368.955 276.808,368.616 277.182 C 368.277 277.557,368.000 278.056,368.000 278.292 C 368.000 278.529,367.013 280.675,365.807 283.061 C 364.600 285.447,363.610 287.547,363.607 287.727 C 363.603 287.906,363.195 288.626,362.699 289.327 C 361.553 290.947,361.273 291.411,358.713 295.936 C 357.551 297.990,356.400 300.022,356.156 300.451 C 355.911 300.879,355.347 301.628,354.902 302.115 C 354.458 302.602,353.798 303.585,353.437 304.300 C 353.075 305.015,352.604 305.600,352.390 305.600 C 352.175 305.600,352.000 305.845,352.000 306.145 C 352.000 306.445,351.575 307.120,351.056 307.645 C 350.536 308.170,349.812 309.185,349.445 309.900 C 349.079 310.615,348.604 311.200,348.390 311.200 C 348.175 311.200,348.000 311.472,348.000 311.804 C 348.000 312.136,347.505 312.946,346.900 313.604 C 345.042 315.626,341.049 320.318,338.600 323.356 C 337.066 325.259,327.127 335.221,324.331 337.657 C 315.930 344.979,316.896 344.164,314.055 346.329 C 309.703 349.645,307.323 351.425,306.741 351.800 C 304.904 352.983,302.609 354.542,302.231 354.865 C 301.345 355.624,297.413 358.000,297.045 358.000 C 296.835 358.000,296.358 358.276,295.984 358.614 C 294.902 359.594,290.757 362.000,290.152 362.000 C 289.848 362.000,289.600 362.158,289.600 362.351 C 289.600 362.544,288.655 363.103,287.500 363.595 C 286.345 364.086,285.130 364.717,284.800 364.997 C 284.470 365.276,283.750 365.638,283.200 365.800 C 282.650 365.962,281.930 366.318,281.600 366.591 C 281.270 366.863,280.382 367.294,279.626 367.548 C 278.870 367.802,277.958 368.276,277.598 368.602 C 277.239 368.927,275.967 369.538,274.772 369.959 C 273.577 370.381,271.790 371.012,270.800 371.363 C 269.810 371.714,268.280 372.338,267.400 372.751 C 262.889 374.866,261.125 375.600,260.556 375.600 C 259.988 375.600,256.588 376.622,249.679 378.868 C 246.092 380.034,242.141 379.927,239.765 378.601 C 238.778 378.050,237.793 377.600,237.574 377.600 C 237.105 377.600,235.166 375.451,233.743 373.354 C 230.287 368.262,232.907 357.800,238.041 356.191 C 238.568 356.025,239.429 355.555,239.954 355.145 C 240.479 354.735,241.242 354.400,241.650 354.400 C 242.058 354.400,243.338 354.035,244.496 353.589 C 245.653 353.144,247.410 352.599,248.400 352.380 C 249.390 352.161,250.740 351.729,251.400 351.420 C 252.060 351.112,253.635 350.559,254.900 350.192 C 256.165 349.826,257.200 349.386,257.200 349.215 C 257.200 349.044,258.007 348.678,258.992 348.402 C 259.978 348.126,260.982 347.663,261.223 347.372 C 261.464 347.082,262.624 346.644,263.800 346.400 C 264.976 346.156,266.153 345.697,266.416 345.381 C 266.678 345.065,267.584 344.620,268.429 344.392 C 269.273 344.165,270.197 343.751,270.482 343.473 C 270.767 343.194,271.630 342.716,272.400 342.410 C 273.170 342.104,274.229 341.527,274.754 341.127 C 275.279 340.727,276.044 340.400,276.454 340.400 C 276.864 340.400,277.560 340.040,278.000 339.600 C 278.440 339.160,278.966 338.800,279.169 338.800 C 279.372 338.800,280.047 338.372,280.669 337.850 C 281.291 337.327,282.452 336.562,283.248 336.150 C 286.504 334.464,287.880 333.626,288.376 333.029 C 288.663 332.683,289.121 332.400,289.394 332.400 C 289.902 332.400,292.461 330.489,296.490 327.100 C 296.948 326.715,297.430 326.400,297.561 326.400 C 297.693 326.399,298.285 325.994,298.878 325.500 C 299.471 325.005,300.461 324.209,301.078 323.730 C 304.941 320.735,312.800 313.418,312.800 312.816 C 312.800 312.617,313.160 312.340,313.600 312.200 C 314.040 312.060,314.400 311.770,314.400 311.554 C 314.400 311.338,315.632 309.955,317.137 308.481 C 319.518 306.149,322.521 302.692,325.690 298.636 C 326.191 297.996,326.915 297.141,327.300 296.736 C 327.685 296.331,328.000 295.865,328.001 295.700 C 328.001 295.535,328.542 294.770,329.203 294.000 C 329.863 293.230,330.519 292.240,330.659 291.800 C 330.800 291.360,331.249 290.765,331.657 290.477 C 332.066 290.190,332.403 289.740,332.407 289.477 C 332.411 289.215,332.848 288.588,333.378 288.086 C 333.909 287.583,334.457 286.653,334.596 286.019 C 334.735 285.385,335.108 284.767,335.424 284.646 C 335.741 284.524,336.000 284.174,336.000 283.868 C 336.000 283.561,336.540 282.631,337.200 281.800 C 337.860 280.969,338.407 280.000,338.416 279.645 C 338.425 279.290,338.965 278.377,339.616 277.615 C 340.267 276.853,340.800 275.908,340.800 275.515 C 340.800 275.122,340.968 274.800,341.173 274.800 C 341.378 274.800,341.673 274.395,341.828 273.900 C 342.305 272.380,345.200 266.447,345.580 266.212 C 345.777 266.090,346.062 265.408,346.212 264.695 C 346.363 263.983,346.803 262.860,347.189 262.200 C 347.576 261.540,348.110 260.100,348.376 259.000 C 348.642 257.900,349.106 256.727,349.407 256.394 C 349.708 256.060,350.148 254.924,350.385 253.868 C 350.621 252.813,351.064 251.556,351.368 251.075 C 351.672 250.594,352.118 249.246,352.360 248.080 C 352.602 246.914,353.055 245.466,353.367 244.863 C 353.679 244.260,354.145 242.605,354.403 241.186 C 354.660 239.767,355.121 238.005,355.428 237.272 C 355.734 236.538,356.172 234.436,356.400 232.600 C 356.628 230.764,357.060 228.663,357.360 227.931 C 357.888 226.642,358.111 224.938,358.636 218.200 C 358.774 216.440,358.966 214.640,359.065 214.200 C 359.433 212.554,359.582 210.866,359.788 206.000 C 360.177 196.808,360.286 196.012,361.382 194.356 C 361.942 193.510,362.400 192.665,362.400 192.478 C 362.400 192.292,363.048 191.613,363.840 190.970 C 364.633 190.326,365.532 189.563,365.840 189.272 C 366.570 188.582,368.473 188.039,371.200 187.741 C 372.410 187.609,373.449 187.460,373.509 187.409 C 373.686 187.257,376.942 188.065,377.695 188.447 " stroke="none" fill="#8786c5" fill-rule="evenodd"></path><path id="path2" d="M379.038 189.138 C 378.799 189.525,380.782 190.551,381.118 190.215 C 381.237 190.097,381.136 190.000,380.895 190.000 C 380.654 190.000,380.186 189.729,379.854 189.397 C 379.522 189.065,379.155 188.949,379.038 189.138 M385.293 209.600 C 385.293 210.370,385.375 210.685,385.476 210.300 C 385.576 209.915,385.576 209.285,385.476 208.900 C 385.375 208.515,385.293 208.830,385.293 209.600 M384.839 213.600 C 384.784 214.370,384.676 215.270,384.600 215.600 C 384.029 218.058,384.038 218.915,384.616 217.200 C 384.949 216.210,385.159 214.680,385.081 213.800 L 384.940 212.200 384.839 213.600 M359.083 213.729 C 358.929 214.130,359.021 214.402,359.313 214.406 C 359.626 214.410,359.590 214.545,359.212 214.784 C 358.888 214.989,358.727 215.261,358.855 215.388 C 359.295 215.828,359.900 214.597,359.621 213.829 C 359.370 213.141,359.312 213.130,359.083 213.729 M384.054 219.667 C 384.025 220.034,383.884 220.664,383.741 221.067 C 383.541 221.633,383.595 221.696,383.975 221.346 C 384.246 221.097,384.387 220.467,384.288 219.946 C 384.190 219.426,384.084 219.300,384.054 219.667 M357.317 228.015 C 357.071 228.667,357.014 229.200,357.191 229.200 C 357.520 229.200,358.151 227.217,357.901 226.968 C 357.826 226.892,357.563 227.364,357.317 228.015 M349.200 256.600 C 348.917 256.941,348.776 257.309,348.886 257.419 C 348.996 257.529,349.317 257.341,349.600 257.000 C 349.883 256.659,350.024 256.291,349.914 256.181 C 349.804 256.071,349.483 256.259,349.200 256.600 M343.494 270.103 L 342.788 271.400 343.594 270.456 C 344.280 269.652,344.646 268.794,344.300 268.803 C 344.245 268.804,343.882 269.389,343.494 270.103 M339.064 278.329 C 338.105 279.389,338.246 279.754,339.233 278.767 C 339.692 278.308,339.991 277.857,339.898 277.764 C 339.805 277.671,339.430 277.925,339.064 278.329 M354.834 301.753 L 353.869 303.000 355.013 301.912 C 355.643 301.314,356.077 300.753,355.979 300.665 C 355.880 300.577,355.365 301.067,354.834 301.753 M316.667 308.867 C 315.383 310.187,314.393 311.325,314.467 311.397 C 314.540 311.468,315.746 310.373,317.148 308.963 C 318.549 307.554,319.539 306.415,319.348 306.433 C 319.156 306.452,317.950 307.547,316.667 308.867 M342.826 317.722 L 341.851 319.000 343.126 317.825 C 344.451 316.603,344.603 316.385,344.100 316.422 C 343.935 316.434,343.362 317.019,342.826 317.722 M335.798 326.002 C 334.775 327.132,335.210 327.237,336.286 326.120 C 336.773 325.614,337.026 325.200,336.848 325.200 C 336.670 325.200,336.197 325.561,335.798 326.002 M319.200 341.800 C 318.228 342.790,317.523 343.600,317.633 343.600 C 317.743 343.600,318.628 342.790,319.600 341.800 C 320.572 340.810,321.277 340.000,321.167 340.000 C 321.057 340.000,320.172 340.810,319.200 341.800 M307.600 350.800 C 307.093 351.240,306.857 351.600,307.077 351.600 C 307.296 351.600,307.802 351.240,308.200 350.800 C 308.598 350.360,308.834 350.000,308.723 350.000 C 308.613 350.000,308.107 350.360,307.600 350.800 M251.376 351.387 C 250.949 351.710,250.791 351.980,251.024 351.987 C 251.256 351.994,251.796 351.736,252.224 351.413 C 252.651 351.090,252.809 350.820,252.576 350.813 C 252.344 350.806,251.804 351.064,251.376 351.387 M292.744 360.424 L 291.800 361.247 293.000 360.545 C 294.579 359.620,294.603 359.600,294.111 359.600 C 293.879 359.600,293.264 359.971,292.744 360.424 M232.101 367.000 C 232.105 367.880,232.187 368.193,232.283 367.695 C 232.379 367.198,232.375 366.478,232.275 366.095 C 232.175 365.713,232.096 366.120,232.101 367.000 M276.600 368.827 C 275.940 369.250,275.605 369.597,275.856 369.598 C 276.106 369.599,276.736 369.246,277.256 368.813 C 278.445 367.823,278.159 367.829,276.600 368.827 M233.444 372.780 C 233.688 373.121,234.088 373.760,234.332 374.200 C 234.576 374.640,234.781 374.785,234.788 374.522 C 234.795 374.260,234.395 373.621,233.900 373.103 C 233.405 372.585,233.200 372.440,233.444 372.780 M263.100 374.229 C 261.549 375.070,261.725 375.361,263.300 374.559 C 264.808 373.793,265.075 373.594,264.567 373.616 C 264.365 373.625,263.705 373.901,263.100 374.229 " stroke="none" fill="#3860b8" fill-rule="evenodd"></path><path id="path3" d="M379.038 189.138 C 378.799 189.525,380.782 190.551,381.118 190.215 C 381.237 190.097,381.136 190.000,380.895 190.000 C 380.654 190.000,380.186 189.729,379.854 189.397 C 379.522 189.065,379.155 188.949,379.038 189.138 M385.293 209.600 C 385.293 210.370,385.375 210.685,385.476 210.300 C 385.576 209.915,385.576 209.285,385.476 208.900 C 385.375 208.515,385.293 208.830,385.293 209.600 M384.839 213.600 C 384.784 214.370,384.676 215.270,384.600 215.600 C 384.029 218.058,384.038 218.915,384.616 217.200 C 384.949 216.210,385.159 214.680,385.081 213.800 L 384.940 212.200 384.839 213.600 M359.083 213.729 C 358.929 214.130,359.021 214.402,359.313 214.406 C 359.626 214.410,359.590 214.545,359.212 214.784 C 358.888 214.989,358.727 215.261,358.855 215.388 C 359.295 215.828,359.900 214.597,359.621 213.829 C 359.370 213.141,359.312 213.130,359.083 213.729 M384.054 219.667 C 384.025 220.034,383.884 220.664,383.741 221.067 C 383.541 221.633,383.595 221.696,383.975 221.346 C 384.246 221.097,384.387 220.467,384.288 219.946 C 384.190 219.426,384.084 219.300,384.054 219.667 M357.317 228.015 C 357.071 228.667,357.014 229.200,357.191 229.200 C 357.520 229.200,358.151 227.217,357.901 226.968 C 357.826 226.892,357.563 227.364,357.317 228.015 M349.200 256.600 C 348.917 256.941,348.776 257.309,348.886 257.419 C 348.996 257.529,349.317 257.341,349.600 257.000 C 349.883 256.659,350.024 256.291,349.914 256.181 C 349.804 256.071,349.483 256.259,349.200 256.600 M343.494 270.103 L 342.788 271.400 343.594 270.456 C 344.280 269.652,344.646 268.794,344.300 268.803 C 344.245 268.804,343.882 269.389,343.494 270.103 M339.064 278.329 C 338.105 279.389,338.246 279.754,339.233 278.767 C 339.692 278.308,339.991 277.857,339.898 277.764 C 339.805 277.671,339.430 277.925,339.064 278.329 M354.834 301.753 L 353.869 303.000 355.013 301.912 C 355.643 301.314,356.077 300.753,355.979 300.665 C 355.880 300.577,355.365 301.067,354.834 301.753 M316.667 308.867 C 315.383 310.187,314.393 311.325,314.467 311.397 C 314.540 311.468,315.746 310.373,317.148 308.963 C 318.549 307.554,319.539 306.415,319.348 306.433 C 319.156 306.452,317.950 307.547,316.667 308.867 M342.826 317.722 L 341.851 319.000 343.126 317.825 C 344.451 316.603,344.603 316.385,344.100 316.422 C 343.935 316.434,343.362 317.019,342.826 317.722 M335.798 326.002 C 334.775 327.132,335.210 327.237,336.286 326.120 C 336.773 325.614,337.026 325.200,336.848 325.200 C 336.670 325.200,336.197 325.561,335.798 326.002 M319.200 341.800 C 318.228 342.790,317.523 343.600,317.633 343.600 C 317.743 343.600,318.628 342.790,319.600 341.800 C 320.572 340.810,321.277 340.000,321.167 340.000 C 321.057 340.000,320.172 340.810,319.200 341.800 M307.600 350.800 C 307.093 351.240,306.857 351.600,307.077 351.600 C 307.296 351.600,307.802 351.240,308.200 350.800 C 308.598 350.360,308.834 350.000,308.723 350.000 C 308.613 350.000,308.107 350.360,307.600 350.800 M251.376 351.387 C 250.949 351.710,250.791 351.980,251.024 351.987 C 251.256 351.994,251.796 351.736,252.224 351.413 C 252.651 351.090,252.809 350.820,252.576 350.813 C 252.344 350.806,251.804 351.064,251.376 351.387 M292.744 360.424 L 291.800 361.247 293.000 360.545 C 294.579 359.620,294.603 359.600,294.111 359.600 C 293.879 359.600,293.264 359.971,292.744 360.424 M232.101 367.000 C 232.105 367.880,232.187 368.193,232.283 367.695 C 232.379 367.198,232.375 366.478,232.275 366.095 C 232.175 365.713,232.096 366.120,232.101 367.000 M276.600 368.827 C 275.940 369.250,275.605 369.597,275.856 369.598 C 276.106 369.599,276.736 369.246,277.256 368.813 C 278.445 367.823,278.159 367.829,276.600 368.827 M233.444 372.780 C 233.688 373.121,234.088 373.760,234.332 374.200 C 234.576 374.640,234.781 374.785,234.788 374.522 C 234.795 374.260,234.395 373.621,233.900 373.103 C 233.405 372.585,233.200 372.440,233.444 372.780 M263.100 374.229 C 261.549 375.070,261.725 375.361,263.300 374.559 C 264.808 373.793,265.075 373.594,264.567 373.616 C 264.365 373.625,263.705 373.901,263.100 374.229 " stroke="none" fill="#3860b8" fill-rule="evenodd"></path><path id="path4" d="M379.038 189.138 C 378.799 189.525,380.782 190.551,381.118 190.215 C 381.237 190.097,381.136 190.000,380.895 190.000 C 380.654 190.000,380.186 189.729,379.854 189.397 C 379.522 189.065,379.155 188.949,379.038 189.138 M385.293 209.600 C 385.293 210.370,385.375 210.685,385.476 210.300 C 385.576 209.915,385.576 209.285,385.476 208.900 C 385.375 208.515,385.293 208.830,385.293 209.600 M384.839 213.600 C 384.784 214.370,384.676 215.270,384.600 215.600 C 384.029 218.058,384.038 218.915,384.616 217.200 C 384.949 216.210,385.159 214.680,385.081 213.800 L 384.940 212.200 384.839 213.600 M359.083 213.729 C 358.929 214.130,359.021 214.402,359.313 214.406 C 359.626 214.410,359.590 214.545,359.212 214.784 C 358.888 214.989,358.727 215.261,358.855 215.388 C 359.295 215.828,359.900 214.597,359.621 213.829 C 359.370 213.141,359.312 213.130,359.083 213.729 M384.054 219.667 C 384.025 220.034,383.884 220.664,383.741 221.067 C 383.541 221.633,383.595 221.696,383.975 221.346 C 384.246 221.097,384.387 220.467,384.288 219.946 C 384.190 219.426,384.084 219.300,384.054 219.667 M357.317 228.015 C 357.071 228.667,357.014 229.200,357.191 229.200 C 357.520 229.200,358.151 227.217,357.901 226.968 C 357.826 226.892,357.563 227.364,357.317 228.015 M349.200 256.600 C 348.917 256.941,348.776 257.309,348.886 257.419 C 348.996 257.529,349.317 257.341,349.600 257.000 C 349.883 256.659,350.024 256.291,349.914 256.181 C 349.804 256.071,349.483 256.259,349.200 256.600 M343.494 270.103 L 342.788 271.400 343.594 270.456 C 344.280 269.652,344.646 268.794,344.300 268.803 C 344.245 268.804,343.882 269.389,343.494 270.103 M339.064 278.329 C 338.105 279.389,338.246 279.754,339.233 278.767 C 339.692 278.308,339.991 277.857,339.898 277.764 C 339.805 277.671,339.430 277.925,339.064 278.329 M354.834 301.753 L 353.869 303.000 355.013 301.912 C 355.643 301.314,356.077 300.753,355.979 300.665 C 355.880 300.577,355.365 301.067,354.834 301.753 M316.667 308.867 C 315.383 310.187,314.393 311.325,314.467 311.397 C 314.540 311.468,315.746 310.373,317.148 308.963 C 318.549 307.554,319.539 306.415,319.348 306.433 C 319.156 306.452,317.950 307.547,316.667 308.867 M342.826 317.722 L 341.851 319.000 343.126 317.825 C 344.451 316.603,344.603 316.385,344.100 316.422 C 343.935 316.434,343.362 317.019,342.826 317.722 M335.798 326.002 C 334.775 327.132,335.210 327.237,336.286 326.120 C 336.773 325.614,337.026 325.200,336.848 325.200 C 336.670 325.200,336.197 325.561,335.798 326.002 M319.200 341.800 C 318.228 342.790,317.523 343.600,317.633 343.600 C 317.743 343.600,318.628 342.790,319.600 341.800 C 320.572 340.810,321.277 340.000,321.167 340.000 C 321.057 340.000,320.172 340.810,319.200 341.800 M307.600 350.800 C 307.093 351.240,306.857 351.600,307.077 351.600 C 307.296 351.600,307.802 351.240,308.200 350.800 C 308.598 350.360,308.834 350.000,308.723 350.000 C 308.613 350.000,308.107 350.360,307.600 350.800 M251.376 351.387 C 250.949 351.710,250.791 351.980,251.024 351.987 C 251.256 351.994,251.796 351.736,252.224 351.413 C 252.651 351.090,252.809 350.820,252.576 350.813 C 252.344 350.806,251.804 351.064,251.376 351.387 M292.744 360.424 L 291.800 361.247 293.000 360.545 C 294.579 359.620,294.603 359.600,294.111 359.600 C 293.879 359.600,293.264 359.971,292.744 360.424 M232.101 367.000 C 232.105 367.880,232.187 368.193,232.283 367.695 C 232.379 367.198,232.375 366.478,232.275 366.095 C 232.175 365.713,232.096 366.120,232.101 367.000 M276.600 368.827 C 275.940 369.250,275.605 369.597,275.856 369.598 C 276.106 369.599,276.736 369.246,277.256 368.813 C 278.445 367.823,278.159 367.829,276.600 368.827 M233.444 372.780 C 233.688 373.121,234.088 373.760,234.332 374.200 C 234.576 374.640,234.781 374.785,234.788 374.522 C 234.795 374.260,234.395 373.621,233.900 373.103 C 233.405 372.585,233.200 372.440,233.444 372.780 M263.100 374.229 C 261.549 375.070,261.725 375.361,263.300 374.559 C 264.808 373.793,265.075 373.594,264.567 373.616 C 264.365 373.625,263.705 373.901,263.100 374.229 " stroke="none" fill="#bbf0bf" fill-rule="evenodd"></path></g></svg>